<svg data-v-423bf9ae="" xmlns="http://www.w3.org/2000/svg" viewBox="0 0 385 90" class="iconLeft"><!----><!----><!----><g data-v-423bf9ae="" id="44402e6d-c3fc-4284-bfb5-c0960f9c28dd" fill="#2F2849" transform="matrix(5.639097562403148,0,0,5.639097562403148,105.47624938994372,-6.879699664304873)"><path d="M4.52 14.52C6.31 14.52 7.06 13.44 7.53 12.38L6.52 11.91C6.17 12.78 5.71 13.50 4.52 13.50C2.97 13.50 2.23 12.22 2.23 10.26L2.23 8.67C2.23 6.71 2.97 5.43 4.52 5.43C5.71 5.43 6.17 6.15 6.52 7.01L7.53 6.55C7.06 5.49 6.31 4.41 4.52 4.41C2.14 4.41 0.98 6.22 0.98 9.46C0.98 12.71 2.14 14.52 4.52 14.52ZM14.31 14.35L15.43 14.35L15.43 7.13L14.31 7.13L14.31 12.14C14.31 13.09 13.41 13.52 12.52 13.52C11.41 13.52 10.81 12.88 10.81 11.56L10.81 7.13L9.69 7.13L9.69 11.76C9.69 13.51 10.68 14.52 12.19 14.52C13.38 14.52 13.94 13.89 14.25 13.17L14.31 13.17ZM21.08 14.52C22.93 14.52 24.14 13.69 24.14 12.26C24.14 10.70 22.69 10.42 21.66 10.26L20.52 10.09C19.88 10.00 19.25 9.80 19.25 9.04C19.25 8.30 19.88 7.90 21.01 7.90C22.29 7.90 22.93 8.40 23.27 8.81L24.00 8.12C23.31 7.39 22.36 6.96 21.06 6.96C19.38 6.96 18.14 7.67 18.14 9.11C18.14 10.68 19.60 10.96 20.62 11.12L21.76 11.28C22.41 11.38 23.03 11.58 23.03 12.33C23.03 13.19 22.23 13.58 21.11 13.58C19.96 13.58 19.18 13.17 18.49 12.45L17.74 13.10C18.49 13.96 19.57 14.52 21.08 14.52ZM29.85 5.53C30.49 5.53 30.73 5.22 30.73 4.82L30.73 4.59C30.73 4.19 30.49 3.88 29.85 3.88C29.20 3.88 28.97 4.19 28.97 4.59L28.97 4.82C28.97 5.22 29.20 5.53 29.85 5.53ZM26.68 14.35L32.84 14.35L32.84 13.40L30.41 13.40L30.41 7.13L26.68 7.13L26.68 8.08L29.29 8.08L29.29 13.40L26.68 13.40ZM36.09 14.35L36.09 9.34C36.09 8.39 36.99 7.95 37.88 7.95C38.99 7.95 39.59 8.60 39.59 9.91L39.59 14.35L40.71 14.35L40.71 9.72C40.71 7.97 39.72 6.96 38.21 6.96C37.02 6.96 36.46 7.59 36.15 8.30L36.09 8.30L36.09 7.13L34.97 7.13L34.97 14.35ZM46.33 14.52C47.75 14.52 48.79 13.82 49.22 12.85L48.40 12.29C48.02 13.08 47.29 13.55 46.33 13.55C44.97 13.55 44.11 12.63 44.11 11.35L44.11 11.02L49.46 11.02L49.46 10.49C49.46 8.44 48.20 6.96 46.26 6.96C44.30 6.96 42.94 8.44 42.94 10.75C42.94 13.03 44.25 14.52 46.33 14.52ZM46.26 7.88C47.45 7.88 48.26 8.75 48.26 10.02L48.26 10.18L44.11 10.18L44.11 10.08C44.11 8.82 45.02 7.88 46.26 7.88Z"></path></g><defs data-v-423bf9ae=""><linearGradient data-v-423bf9ae="" gradientTransform="rotate(25)" id="768b9fdf-26db-46bf-a9fc-43c392cc2f6d" x1="0%" y1="0%" x2="100%" y2="0%"><stop data-v-423bf9ae="" offset="0%" style="stop-color: rgb(233, 142, 13); stop-opacity: 1;"></stop><stop data-v-423bf9ae="" offset="100%" style="stop-color: rgb(21, 54, 241); stop-opacity: 1;"></stop></linearGradient></defs><g data-v-423bf9ae="" id="64542fce-8eaf-42da-b111-1eef89f501ff" transform="matrix(1.651376262376156,0,0,1.651376262376156,-36.11446722179615,-36.851383254822196)" stroke="none" fill="url(#768b9fdf-26db-46bf-a9fc-43c392cc2f6d)"><path d="M49.3 38.4c-.6 0-1-.4-1-1 0-1.2.5-1.9.9-2.3.3-.4.5-.6.5-1.1s-.2-.7-.5-1.1c-.4-.5-.9-1.1-.9-2.3 0-1.2.5-1.9.9-2.3.3-.4.5-.6.5-1.1 0-.5-.2-.7-.5-1.1-.4-.5-.9-1.1-.9-2.3 0-.6.4-1 1-1s1 .4 1 1c0 .5.2.7.5 1.1.4.5.9 1.1.9 2.3s-.5 1.9-.9 2.3c-.3.4-.5.6-.5 1.1 0 .5.2.7.5 1.1.4.5.9 1.1.9 2.3s-.5 1.9-.9 2.3c-.3.4-.5.6-.5 1.1 0 .5-.4 1-1 1zM44.6 35c-.6 0-1-.4-1-1 0-.8.4-1.3.6-1.5.1-.2.1-.2.1-.3s0-.1-.1-.3c-.2-.3-.6-.7-.6-1.5s.4-1.3.6-1.5c.1-.2.1-.2.1-.3s0-.1-.1-.3c-.2-.3-.6-.7-.6-1.5 0-.6.4-1 1-1s1 .4 1 1c0 .1 0 .1.1.3.2.3.6.7.6 1.5s-.4 1.3-.6 1.5c-.1.2-.1.2-.1.3 0 .1 0 .1.1.3.2.3.6.7.6 1.5s-.4 1.3-.6 1.5c-.1.2-.1.2-.1.3 0 .6-.4 1-1 1zM54.6 35c-.6 0-1-.4-1-1 0-.8.4-1.3.6-1.5.1-.2.1-.2.1-.3s0-.1-.1-.3c-.2-.3-.6-.7-.6-1.5s.4-1.3.6-1.5c.1-.2.1-.2.1-.3s0-.1-.1-.3c-.2-.3-.6-.7-.6-1.5 0-.6.4-1 1-1s1 .4 1 1c0 .1 0 .1.1.3.2.3.6.7.6 1.5s-.4 1.3-.6 1.5c-.1.2-.1.2-.1.3 0 .1 0 .1.1.3.2.3.6.7.6 1.5s-.4 1.3-.6 1.5c-.1.2-.1.2-.1.3 0 .6-.4 1-1 1zM73.8 77.3H26.2c-.4 0-.7-.2-.9-.6l-2.8-6.1c-.1-.3-.1-.7.1-1s.5-.5.8-.5h53.2c.3 0 .7.2.8.5s.2.6.1 1l-2.8 6.1c-.2.4-.5.6-.9.6zm-47-2h46.3l1.9-4.1H25l1.8 4.1z"></path><path d="M73.4 71.1c-.6 0-1-.4-1-1 0-12.3-10-22.4-22.4-22.4s-22.4 10-22.4 22.4c0 .6-.4 1-1 1s-1-.4-1-1c0-13.5 10.9-24.4 24.4-24.4s24.4 10.9 24.4 24.4c0 .6-.5 1-1 1z"></path><g><path d="M33.3 60.8c-.2 0-.4-.1-.6-.2-.5-.3-.6-.9-.3-1.4 3.2-4.6 7.8-8 13.2-9.6.5-.2 1.1.1 1.2.7.2.5-.1 1.1-.7 1.2-4.9 1.5-9.2 4.6-12.1 8.8-.1.4-.4.5-.7.5z"></path></g><g><path d="M50 47.7c-2.3 0-4.1-1.8-4.1-4.1s1.8-4.1 4.1-4.1 4.1 1.8 4.1 4.1-1.8 4.1-4.1 4.1zm0-6.2c-1.2 0-2.1.9-2.1 2.1s.9 2.1 2.1 2.1 2.1-.9 2.1-2.1-.9-2.1-2.1-2.1z"></path></g></g><!----></svg>